<svg width="32" height="32" viewBox="0 0 32 32" fill="none" xmlns="http://www.w3.org/2000/svg">
<path d="M27.4933 11.2668C26.0933 5.10683 20.72 2.3335 16 2.3335C16 2.3335 16 2.3335 15.9867 2.3335C11.28 2.3335 5.89334 5.0935 4.49334 11.2535C2.93334 18.1335 7.14667 23.9602 10.96 27.6268C12.3733 28.9868 14.1867 29.6668 16 29.6668C17.8133 29.6668 19.6267 28.9868 21.0267 27.6268C24.84 23.9602 29.0533 18.1468 27.4933 11.2668Z" fill="#AB5530"/>
<path d="M16 17.9469C18.3196 17.9469 20.2 16.0665 20.2 13.7469C20.2 11.4273 18.3196 9.54688 16 9.54688C13.6805 9.54688 11.8 11.4273 11.8 13.7469C11.8 16.0665 13.6805 17.9469 16 17.9469Z" fill="white"/>
</svg>
