<svg width="28" height="28" viewBox="0 0 28 28" fill="none" xmlns="http://www.w3.org/2000/svg">
<path d="M25.6668 26.5417H2.3335C1.85516 26.5417 1.4585 26.1451 1.4585 25.6667C1.4585 25.1884 1.85516 24.7917 2.3335 24.7917H25.6668C26.1452 24.7917 26.5418 25.1884 26.5418 25.6667C26.5418 26.1451 26.1452 26.5417 25.6668 26.5417Z" fill="#757575"/>
<path d="M24.5 26.5416H3.5C3.02167 26.5416 2.625 26.1449 2.625 25.6666V6.99992C2.625 3.47659 4.64333 1.45825 8.16667 1.45825H19.8333C23.3567 1.45825 25.375 3.47659 25.375 6.99992V25.6666C25.375 26.1449 24.9783 26.5416 24.5 26.5416ZM4.375 24.7916H23.625V6.99992C23.625 4.40992 22.4233 3.20825 19.8333 3.20825H8.16667C5.57667 3.20825 4.375 4.40992 4.375 6.99992V24.7916Z" fill="#757575"/>
<path d="M11.6665 20.125H8.1665C7.68817 20.125 7.2915 19.7283 7.2915 19.25C7.2915 18.7717 7.68817 18.375 8.1665 18.375H11.6665C12.1448 18.375 12.5415 18.7717 12.5415 19.25C12.5415 19.7283 12.1448 20.125 11.6665 20.125Z" fill="#757575"/>
<path d="M19.8335 20.125H16.3335C15.8552 20.125 15.4585 19.7283 15.4585 19.25C15.4585 18.7717 15.8552 18.375 16.3335 18.375H19.8335C20.3118 18.375 20.7085 18.7717 20.7085 19.25C20.7085 19.7283 20.3118 20.125 19.8335 20.125Z" fill="#757575"/>
<path d="M11.6665 14.875H8.1665C7.68817 14.875 7.2915 14.4783 7.2915 14C7.2915 13.5217 7.68817 13.125 8.1665 13.125H11.6665C12.1448 13.125 12.5415 13.5217 12.5415 14C12.5415 14.4783 12.1448 14.875 11.6665 14.875Z" fill="#757575"/>
<path d="M19.8335 14.875H16.3335C15.8552 14.875 15.4585 14.4783 15.4585 14C15.4585 13.5217 15.8552 13.125 16.3335 13.125H19.8335C20.3118 13.125 20.7085 13.5217 20.7085 14C20.7085 14.4783 20.3118 14.875 19.8335 14.875Z" fill="#757575"/>
<path d="M11.6665 9.625H8.1665C7.68817 9.625 7.2915 9.22833 7.2915 8.75C7.2915 8.27167 7.68817 7.875 8.1665 7.875H11.6665C12.1448 7.875 12.5415 8.27167 12.5415 8.75C12.5415 9.22833 12.1448 9.625 11.6665 9.625Z" fill="#757575"/>
<path d="M19.8335 9.625H16.3335C15.8552 9.625 15.4585 9.22833 15.4585 8.75C15.4585 8.27167 15.8552 7.875 16.3335 7.875H19.8335C20.3118 7.875 20.7085 8.27167 20.7085 8.75C20.7085 9.22833 20.3118 9.625 19.8335 9.625Z" fill="#757575"/>
</svg>
