<svg width="22" height="22" viewBox="0 0 22 22" fill="none" xmlns="http://www.w3.org/2000/svg">
<path d="M20.1666 7.96596C20.1666 9.0568 19.9924 10.0651 19.6899 11.0001H2.30992C2.00742 10.0651 1.83325 9.0568 1.83325 7.96596C1.83325 5.13346 4.11575 2.8418 6.92992 2.8418C8.58909 2.8418 10.0741 3.64846 10.9999 4.88596C11.9258 3.64846 13.4108 2.8418 15.0699 2.8418C17.8841 2.8418 20.1666 5.13346 20.1666 7.96596Z" fill="#AC0000"/>
<path d="M19.6901 11C18.2417 15.5833 13.7776 18.3242 11.5684 19.0758C11.2567 19.1858 10.7434 19.1858 10.4317 19.0758C8.22256 18.3242 3.75839 15.5833 2.31006 11H19.6901Z" fill="#AC0000"/>
</svg>
