<svg width="22" height="22" viewBox="0 0 22 22" fill="none" xmlns="http://www.w3.org/2000/svg">
<path d="M20.1663 7.96596C20.1663 9.0568 19.9922 10.0651 19.6897 11.0001H2.30967C2.00717 10.0651 1.83301 9.0568 1.83301 7.96596C1.83301 5.13346 4.11551 2.8418 6.92967 2.8418C8.58884 2.8418 10.0738 3.64846 10.9997 4.88596C11.9255 3.64846 13.4105 2.8418 15.0697 2.8418C17.8838 2.8418 20.1663 5.13346 20.1663 7.96596Z" fill="#AC0000"/>
<path d="M19.6896 11C18.2412 15.5833 13.7771 18.3242 11.5679 19.0758C11.2562 19.1858 10.7429 19.1858 10.4312 19.0758C8.22207 18.3242 3.7579 15.5833 2.30957 11H19.6896Z" fill="#AC0000"/>
</svg>
