<svg width="28" height="28" viewBox="0 0 28 28" fill="none" xmlns="http://www.w3.org/2000/svg">
<path d="M4.977 18.7367C5.96385 20.7325 7.56475 22.3591 9.5445 23.3777C11.5098 24.3873 13.7508 24.7281 15.9273 24.3484C18.1105 23.9641 20.1107 22.8836 21.6288 21.2684C23.1606 19.6374 24.136 17.5629 24.4148 15.3429C24.6975 13.1177 24.2713 10.8601 23.1968 8.8912C22.1322 6.93726 20.4681 5.37699 18.4497 4.44037C16.445 3.51189 14.1921 3.26285 12.033 3.73103C9.87467 4.19887 8.106 5.26287 6.643 6.9452C6.46683 7.13187 5.7855 7.88553 5.21967 9.02303M8.75 9.33337L4.5395 10.1734L3.5 5.83337M14 10.5V15.1667L17.5 17.5" stroke="#757575" stroke-width="1.5" stroke-linecap="round" stroke-linejoin="round"/>
</svg>
