<svg width="66" height="109" viewBox="0 0 66 109" fill="none" xmlns="http://www.w3.org/2000/svg">
<g clip-path="url(#clip0_15_2133)">
<path d="M32.3948 56.3434C35.3903 58.1635 39.416 58.2065 42.7957 57.9334C42.9706 57.9196 42.972 57.6437 42.7957 57.6576C39.4532 57.9265 35.4922 57.9015 32.5325 56.105C32.3811 56.0135 32.2433 56.2519 32.3948 56.3434Z" fill="#F18E7B"/>
<path d="M65.2629 6.64406V102.475C65.2629 105.755 62.6214 108.414 59.3628 108.414H6.5994C3.76917 108.414 1.4017 106.404 0.831521 103.725C0.746132 103.322 0.700684 102.903 0.700684 102.475V6.64406C0.700684 6.06463 0.783318 5.50599 0.937569 4.97646C1.65236 2.50902 3.91654 0.705566 6.5994 0.705566H59.3628C62.6214 0.705566 65.2629 3.36431 65.2629 6.64406Z" fill="#FFF5EC"/>
<path d="M59.3629 109.119H6.60087C2.96082 109.119 -0.000244141 106.139 -0.000244141 102.475V6.64407C-0.000244141 2.98034 2.96082 0 6.60087 0H59.3629C63.003 0 65.964 2.98034 65.964 6.64407V102.475C65.964 106.139 63.003 109.119 59.3629 109.119ZM6.60087 1.41254C3.73483 1.41254 1.40316 3.75938 1.40316 6.64407V102.475C1.40316 105.36 3.73483 107.707 6.60087 107.707H59.3629C62.229 107.707 64.5606 105.36 64.5606 102.475V6.64407C64.5606 3.75938 62.229 1.41254 59.3629 1.41254H6.60087Z" fill="#1E1E1E" fill-opacity="0.5"/>
<path d="M17.3043 85.7738C13.8681 85.5853 10.6702 87.1337 8.12229 89.3641C5.21218 91.9119 3.26339 95.2984 1.4716 98.6863C0.371183 100.766 -0.690668 102.866 -1.91779 104.873C-1.97563 104.969 -1.82689 105.056 -1.76905 104.96C0.824295 100.72 2.65602 95.9735 5.7796 92.0713C8.57402 88.5809 12.6741 85.6934 17.3043 85.9471C17.4145 85.9526 17.4145 85.7794 17.3043 85.7738Z" fill="white"/>
<path d="M28.4187 86.0747C31.629 88.8804 32.9278 93.0889 34.0557 97.0687C34.0805 97.1546 34.1934 97.1463 34.2224 97.0687C34.5804 96.0651 35.0459 95.1252 35.6203 94.2297C35.6809 94.1355 35.5321 94.0495 35.4715 94.1424C34.8876 95.049 34.4193 96.0055 34.0557 97.023H34.2224C33.0861 93.0168 31.7723 88.7764 28.5412 85.9527C28.4586 85.8793 28.336 86.0026 28.42 86.0747H28.4187Z" fill="white"/>
<path d="M6.88542 101.047C8.41829 97.4307 10.0049 93.7545 12.7208 90.8587C12.6712 90.838 12.623 90.8186 12.5734 90.7978C12.7511 92.5222 13.1532 94.1967 13.784 95.8103C13.824 95.9128 13.9906 95.8685 13.9507 95.7645C13.3254 94.1648 12.9219 92.5083 12.7456 90.7991C12.7387 90.7298 12.6547 90.6785 12.5982 90.7381C9.87265 93.645 8.27506 97.3323 6.73668 100.963C6.69398 101.064 6.84135 101.153 6.88542 101.05V101.047Z" fill="white"/>
<path d="M28.9764 90.2057C28.774 89.3712 28.3856 88.6531 27.803 88.0266C27.7521 87.9725 27.6543 88.0141 27.6557 88.0876C27.7149 90.3692 27.27 92.6038 26.3376 94.6831C26.2922 94.7843 26.4409 94.8716 26.4864 94.7704C27.4325 92.6606 27.8884 90.4011 27.8278 88.0862C27.7782 88.107 27.73 88.1264 27.6804 88.1472C28.2437 88.7515 28.6156 89.446 28.8098 90.25C28.8359 90.3582 29.0026 90.3124 28.9764 90.2043V90.2057Z" fill="white"/>
<path opacity="0.4" d="M49.375 46.8543C49.375 47.1668 49.3751 47.4793 49.3543 47.771C46.1668 46.5835 42.4168 47.3126 39.9168 49.5626C38.2293 48.0418 36.0417 47.1877 33.7084 47.1877C28.5834 47.1877 24.4168 51.3752 24.4168 56.5418C24.4168 62.4377 27.3751 66.7501 30.2084 69.5418C29.9793 69.521 29.7918 69.4793 29.6251 69.4168C24.2293 67.5626 12.1667 59.896 12.1667 46.8543C12.1667 41.1043 16.7917 36.4585 22.5001 36.4585C25.8959 36.4585 28.8959 38.0835 30.7709 40.6043C32.6667 38.0835 35.6667 36.4585 39.0417 36.4585C44.7501 36.4585 49.375 41.1043 49.375 46.8543Z" fill="#AC0000"/>
<path d="M45.5 49.979C43.2708 49.979 41.2499 51.0624 39.9999 52.729C38.7499 51.0624 36.75 49.979 34.5 49.979C30.7083 49.979 27.625 53.0624 27.625 56.8957C27.625 58.3749 27.8542 59.729 28.2708 60.979C30.2292 67.1665 36.25 70.854 39.2291 71.8749C39.6458 72.0207 40.3333 72.0207 40.7708 71.8749C43.75 70.854 49.7708 67.1665 51.7291 60.979C52.1458 59.7082 52.3749 58.354 52.3749 56.8957C52.3749 53.0624 49.2916 49.979 45.5 49.979Z" fill="#AC0000"/>
</g>
<defs>
<clipPath id="clip0_15_2133">
<rect width="66" height="109" fill="white"/>
</clipPath>
</defs>
</svg>
