<svg width="48" height="55" viewBox="0 0 48 55" fill="none" xmlns="http://www.w3.org/2000/svg">
<g clip-path="url(#clip0_logo)">
<path d="M0 52.5572C0 53.9067 1.09685 55.0005 2.45015 55.0005H8.22596C9.57926 55.0005 10.6761 53.9067 10.6761 52.5572V23.5904C10.6761 21.6945 10.9807 19.8066 11.6235 18.0222C14.2607 10.6923 20.5298 9.48209 23.9886 9.5562C27.8271 9.63765 31.4223 10.9953 33.7892 13.5469C34.9228 14.7685 35.6766 16.2533 36.1764 17.6329C36.8257 19.4246 37.1377 21.3206 37.1377 23.2256V52.558C37.1377 53.9076 38.2345 55.0013 39.5878 55.0013H45.5499C46.9032 55.0013 48 53.9076 48 52.558V23.3738C48 20.1177 47.403 16.882 46.1812 13.8629C40.8823 0.765261 27.7904 -0.197394 23.2535 0.0265738C23.2535 0.0265738 0.594569 -0.706412 0 23.6043V52.5572Z" fill="#3F2419"/>
<path d="M18.9772 55H29.0228C29.9253 55 30.6562 54.2711 30.6562 53.3712V41.0358C30.6562 39.5861 30.2462 38.1584 29.4336 36.9563C28.456 35.5099 26.7466 34.0619 23.8179 34.0537C22.1828 34.0497 19.3194 34.9007 17.9669 37.7814C17.5447 38.6805 17.3438 39.6684 17.3438 40.6612V53.3712C17.3438 54.2711 18.0747 55 18.9772 55Z" fill="#3F2419"/>
</g>
<defs>
<clipPath id="clip0_logo">
<rect width="48" height="55" fill="white"/>
</clipPath>
</defs>
</svg>
