<svg width="32" height="32" viewBox="0 0 32 32" fill="none" xmlns="http://www.w3.org/2000/svg">
<path d="M11.6801 2.30669H11.8535C17.7735 2.30669 20.6268 4.64003 21.1201 9.86669C21.1735 10.4134 20.7735 10.9067 20.2135 10.96C19.6801 11.0134 19.1735 10.6 19.1201 10.0534C18.7335 5.86669 16.7601 4.30669 11.8401 4.30669H11.6668C6.24014 4.30669 4.32014 6.22669 4.32014 11.6534L4.32014 20.3467C4.32014 25.7734 6.24014 27.6934 11.6668 27.6934H11.8401C16.7868 27.6934 18.7601 26.1067 19.1201 21.84C19.1868 21.2934 19.6535 20.88 20.2135 20.9334C20.7735 20.9734 21.1735 21.4667 21.1335 22.0134C20.6801 27.32 17.8135 29.6934 11.8535 29.6934H11.6801C5.13348 29.6934 2.33348 26.8934 2.33348 20.3467L2.33348 11.6534C2.33348 5.10669 5.13348 2.30669 11.6801 2.30669Z" fill="#757575"/>
<path d="M12 15L27.1733 15C27.72 15 28.1733 15.4533 28.1733 16C28.1733 16.5467 27.72 17 27.1733 17L12 17C11.4533 17 11 16.5467 11 16C11 15.4533 11.4533 15 12 15Z" fill="#757575"/>
<path d="M24.2002 10.5334C24.4536 10.5334 24.7069 10.6267 24.9069 10.8267L29.3736 15.2934C29.7602 15.68 29.7602 16.32 29.3736 16.7067L24.9069 21.1734C24.5202 21.56 23.8802 21.56 23.4936 21.1734C23.1069 20.7867 23.1069 20.1467 23.4936 19.76L27.2536 16L23.4936 12.24C23.1069 11.8534 23.1069 11.2134 23.4936 10.8267C23.6802 10.6267 23.9469 10.5334 24.2002 10.5334Z" fill="#757575"/>
</svg>
