<svg width="32" height="32" viewBox="0 0 32 32" fill="none" xmlns="http://www.w3.org/2000/svg">
<path d="M15.3332 29.0001C7.79984 29.0001 1.6665 22.8667 1.6665 15.3334C1.6665 7.80008 7.79984 1.66675 15.3332 1.66675C22.8665 1.66675 28.9998 7.80008 28.9998 15.3334C28.9998 22.8667 22.8665 29.0001 15.3332 29.0001ZM15.3332 3.66675C8.89317 3.66675 3.6665 8.90675 3.6665 15.3334C3.6665 21.7601 8.89317 27.0001 15.3332 27.0001C21.7732 27.0001 26.9998 21.7601 26.9998 15.3334C26.9998 8.90675 21.7732 3.66675 15.3332 3.66675Z" fill="white"/>
<path d="M29.3333 30.3333C29.0799 30.3333 28.8266 30.2399 28.6266 30.0399L25.9599 27.3733C25.5733 26.9866 25.5733 26.3466 25.9599 25.9599C26.3466 25.5733 26.9866 25.5733 27.3733 25.9599L30.0399 28.6266C30.4266 29.0133 30.4266 29.6533 30.0399 30.0399C29.8399 30.2399 29.5866 30.3333 29.3333 30.3333Z" fill="white"/>
</svg>
